<mxfile host="app.diagrams.net" modified="2024-06-23T13:37:34.358Z" agent="Mozilla/5.0 (Windows NT 10.0; Win64; x64; rv:127.0) Gecko/20100101 Firefox/127.0" etag="uhZ4Ucq2kGd-zIn-yKl8" version="24.6.2" type="device">
  <diagram id="R2lEEEUBdFMjLlhIrx00" name="Page-1">
    <mxGraphModel dx="2963" dy="1066" grid="1" gridSize="10" guides="1" tooltips="1" connect="1" arrows="1" fold="1" page="1" pageScale="1" pageWidth="850" pageHeight="1100" math="0" shadow="0" extFonts="Permanent Marker^https://fonts.googleapis.com/css?family=Permanent+Marker">
      <root>
        <mxCell id="0" />
        <mxCell id="1" parent="0" />
        <mxCell id="tYp8DxYeUjotnzbZJ6wx-1" value="booking" style="whiteSpace=wrap;html=1;align=center;" vertex="1" parent="1">
          <mxGeometry x="180" y="130" width="100" height="40" as="geometry" />
        </mxCell>
        <mxCell id="tYp8DxYeUjotnzbZJ6wx-2" value="customer" style="whiteSpace=wrap;html=1;align=center;" vertex="1" parent="1">
          <mxGeometry x="520" y="130" width="100" height="40" as="geometry" />
        </mxCell>
        <mxCell id="tYp8DxYeUjotnzbZJ6wx-3" value="booking_item" style="whiteSpace=wrap;html=1;align=center;" vertex="1" parent="1">
          <mxGeometry x="180" y="320" width="100" height="40" as="geometry" />
        </mxCell>
        <mxCell id="tYp8DxYeUjotnzbZJ6wx-4" value="ticket" style="whiteSpace=wrap;html=1;align=center;" vertex="1" parent="1">
          <mxGeometry x="520" y="320" width="100" height="40" as="geometry" />
        </mxCell>
        <mxCell id="tYp8DxYeUjotnzbZJ6wx-5" value="refund_link" style="whiteSpace=wrap;html=1;align=center;" vertex="1" parent="1">
          <mxGeometry x="20" y="320" width="100" height="40" as="geometry" />
        </mxCell>
        <mxCell id="tYp8DxYeUjotnzbZJ6wx-6" value="cancellation" style="whiteSpace=wrap;html=1;align=center;" vertex="1" parent="1">
          <mxGeometry x="700" y="220" width="100" height="40" as="geometry" />
        </mxCell>
        <mxCell id="tYp8DxYeUjotnzbZJ6wx-8" value="" style="endArrow=none;html=1;rounded=0;" edge="1" parent="1" source="tYp8DxYeUjotnzbZJ6wx-7" target="tYp8DxYeUjotnzbZJ6wx-2">
          <mxGeometry relative="1" as="geometry">
            <mxPoint x="310" y="230" as="sourcePoint" />
            <mxPoint x="470" y="230" as="targetPoint" />
          </mxGeometry>
        </mxCell>
        <mxCell id="tYp8DxYeUjotnzbZJ6wx-10" value="1" style="resizable=0;html=1;whiteSpace=wrap;align=right;verticalAlign=bottom;" connectable="0" vertex="1" parent="tYp8DxYeUjotnzbZJ6wx-8">
          <mxGeometry x="1" relative="1" as="geometry" />
        </mxCell>
        <mxCell id="tYp8DxYeUjotnzbZJ6wx-11" value="" style="endArrow=none;html=1;rounded=0;" edge="1" parent="1" source="tYp8DxYeUjotnzbZJ6wx-1" target="tYp8DxYeUjotnzbZJ6wx-7">
          <mxGeometry relative="1" as="geometry">
            <mxPoint x="280" y="150" as="sourcePoint" />
            <mxPoint x="520" y="150" as="targetPoint" />
          </mxGeometry>
        </mxCell>
        <mxCell id="tYp8DxYeUjotnzbZJ6wx-12" value="1" style="resizable=0;html=1;whiteSpace=wrap;align=left;verticalAlign=bottom;" connectable="0" vertex="1" parent="tYp8DxYeUjotnzbZJ6wx-11">
          <mxGeometry x="-1" relative="1" as="geometry" />
        </mxCell>
        <mxCell id="tYp8DxYeUjotnzbZJ6wx-7" value="booked_by" style="shape=rhombus;perimeter=rhombusPerimeter;whiteSpace=wrap;html=1;align=center;" vertex="1" parent="1">
          <mxGeometry x="340" y="120" width="120" height="60" as="geometry" />
        </mxCell>
        <mxCell id="tYp8DxYeUjotnzbZJ6wx-16" value="" style="endArrow=none;html=1;rounded=0;" edge="1" parent="1" source="tYp8DxYeUjotnzbZJ6wx-56" target="tYp8DxYeUjotnzbZJ6wx-4">
          <mxGeometry relative="1" as="geometry">
            <mxPoint x="370" y="390" as="sourcePoint" />
            <mxPoint x="530" y="390" as="targetPoint" />
          </mxGeometry>
        </mxCell>
        <mxCell id="tYp8DxYeUjotnzbZJ6wx-18" value="1,N" style="resizable=0;html=1;whiteSpace=wrap;align=right;verticalAlign=bottom;" connectable="0" vertex="1" parent="tYp8DxYeUjotnzbZJ6wx-16">
          <mxGeometry x="1" relative="1" as="geometry" />
        </mxCell>
        <mxCell id="tYp8DxYeUjotnzbZJ6wx-20" value="" style="endArrow=none;html=1;rounded=0;" edge="1" parent="1" source="tYp8DxYeUjotnzbZJ6wx-36" target="tYp8DxYeUjotnzbZJ6wx-6">
          <mxGeometry relative="1" as="geometry">
            <mxPoint x="480" y="400" as="sourcePoint" />
            <mxPoint x="640" y="400" as="targetPoint" />
          </mxGeometry>
        </mxCell>
        <mxCell id="tYp8DxYeUjotnzbZJ6wx-22" value="1,N" style="resizable=0;html=1;whiteSpace=wrap;align=right;verticalAlign=bottom;" connectable="0" vertex="1" parent="tYp8DxYeUjotnzbZJ6wx-20">
          <mxGeometry x="1" relative="1" as="geometry" />
        </mxCell>
        <mxCell id="tYp8DxYeUjotnzbZJ6wx-23" value="" style="endArrow=none;html=1;rounded=0;" edge="1" parent="1" source="tYp8DxYeUjotnzbZJ6wx-15" target="tYp8DxYeUjotnzbZJ6wx-5">
          <mxGeometry relative="1" as="geometry">
            <mxPoint x="300" y="430" as="sourcePoint" />
            <mxPoint x="460" y="430" as="targetPoint" />
          </mxGeometry>
        </mxCell>
        <mxCell id="tYp8DxYeUjotnzbZJ6wx-25" value="1" style="resizable=0;html=1;whiteSpace=wrap;align=right;verticalAlign=bottom;" connectable="0" vertex="1" parent="tYp8DxYeUjotnzbZJ6wx-23">
          <mxGeometry x="1" relative="1" as="geometry" />
        </mxCell>
        <mxCell id="tYp8DxYeUjotnzbZJ6wx-26" value="" style="endArrow=none;html=1;rounded=0;" edge="1" parent="1" source="tYp8DxYeUjotnzbZJ6wx-1" target="tYp8DxYeUjotnzbZJ6wx-15">
          <mxGeometry relative="1" as="geometry">
            <mxPoint x="230" y="360" as="sourcePoint" />
            <mxPoint x="230" y="470" as="targetPoint" />
          </mxGeometry>
        </mxCell>
        <mxCell id="tYp8DxYeUjotnzbZJ6wx-27" value="1" style="resizable=0;html=1;whiteSpace=wrap;align=left;verticalAlign=bottom;" connectable="0" vertex="1" parent="tYp8DxYeUjotnzbZJ6wx-26">
          <mxGeometry x="-1" relative="1" as="geometry">
            <mxPoint x="-20" y="20" as="offset" />
          </mxGeometry>
        </mxCell>
        <mxCell id="tYp8DxYeUjotnzbZJ6wx-15" value="has" style="shape=rhombus;perimeter=rhombusPerimeter;whiteSpace=wrap;html=1;align=center;" vertex="1" parent="1">
          <mxGeometry x="10" y="120" width="120" height="60" as="geometry" />
        </mxCell>
        <mxCell id="tYp8DxYeUjotnzbZJ6wx-30" value="" style="endArrow=none;html=1;rounded=0;" edge="1" parent="1" source="tYp8DxYeUjotnzbZJ6wx-14" target="tYp8DxYeUjotnzbZJ6wx-3">
          <mxGeometry relative="1" as="geometry">
            <mxPoint x="50" y="280" as="sourcePoint" />
            <mxPoint x="210" y="280" as="targetPoint" />
          </mxGeometry>
        </mxCell>
        <mxCell id="tYp8DxYeUjotnzbZJ6wx-32" value="1,N" style="resizable=0;html=1;whiteSpace=wrap;align=right;verticalAlign=bottom;" connectable="0" vertex="1" parent="tYp8DxYeUjotnzbZJ6wx-30">
          <mxGeometry x="1" relative="1" as="geometry" />
        </mxCell>
        <mxCell id="tYp8DxYeUjotnzbZJ6wx-33" value="" style="endArrow=none;html=1;rounded=0;" edge="1" parent="1" source="tYp8DxYeUjotnzbZJ6wx-1" target="tYp8DxYeUjotnzbZJ6wx-14">
          <mxGeometry relative="1" as="geometry">
            <mxPoint x="230" y="170" as="sourcePoint" />
            <mxPoint x="230" y="320" as="targetPoint" />
          </mxGeometry>
        </mxCell>
        <mxCell id="tYp8DxYeUjotnzbZJ6wx-34" value="1" style="resizable=0;html=1;whiteSpace=wrap;align=left;verticalAlign=bottom;" connectable="0" vertex="1" parent="tYp8DxYeUjotnzbZJ6wx-33">
          <mxGeometry x="-1" relative="1" as="geometry">
            <mxPoint y="20" as="offset" />
          </mxGeometry>
        </mxCell>
        <mxCell id="tYp8DxYeUjotnzbZJ6wx-14" value="booked_by" style="shape=rhombus;perimeter=rhombusPerimeter;whiteSpace=wrap;html=1;align=center;" vertex="1" parent="1">
          <mxGeometry x="170" y="210" width="120" height="60" as="geometry" />
        </mxCell>
        <mxCell id="tYp8DxYeUjotnzbZJ6wx-37" value="" style="endArrow=none;html=1;rounded=0;" edge="1" parent="1" source="tYp8DxYeUjotnzbZJ6wx-4" target="tYp8DxYeUjotnzbZJ6wx-36">
          <mxGeometry relative="1" as="geometry">
            <mxPoint x="570" y="360" as="sourcePoint" />
            <mxPoint x="570" y="520" as="targetPoint" />
          </mxGeometry>
        </mxCell>
        <mxCell id="tYp8DxYeUjotnzbZJ6wx-38" value="1" style="resizable=0;html=1;whiteSpace=wrap;align=left;verticalAlign=bottom;" connectable="0" vertex="1" parent="tYp8DxYeUjotnzbZJ6wx-37">
          <mxGeometry x="-1" relative="1" as="geometry">
            <mxPoint as="offset" />
          </mxGeometry>
        </mxCell>
        <mxCell id="tYp8DxYeUjotnzbZJ6wx-36" value="marked_for_cancellation" style="shape=rhombus;perimeter=rhombusPerimeter;whiteSpace=wrap;html=1;align=center;" vertex="1" parent="1">
          <mxGeometry x="480" y="210" width="180" height="60" as="geometry" />
        </mxCell>
        <mxCell id="tYp8DxYeUjotnzbZJ6wx-40" value="id" style="ellipse;whiteSpace=wrap;html=1;align=center;fontStyle=4;" vertex="1" parent="1">
          <mxGeometry x="160" width="100" height="40" as="geometry" />
        </mxCell>
        <mxCell id="tYp8DxYeUjotnzbZJ6wx-41" value="id" style="ellipse;whiteSpace=wrap;html=1;align=center;fontStyle=4;" vertex="1" parent="1">
          <mxGeometry x="610" y="70" width="100" height="40" as="geometry" />
        </mxCell>
        <mxCell id="tYp8DxYeUjotnzbZJ6wx-42" value="id" style="ellipse;whiteSpace=wrap;html=1;align=center;fontStyle=4;" vertex="1" parent="1">
          <mxGeometry x="700" y="160" width="100" height="40" as="geometry" />
        </mxCell>
        <mxCell id="tYp8DxYeUjotnzbZJ6wx-43" value="id" style="ellipse;whiteSpace=wrap;html=1;align=center;fontStyle=4;" vertex="1" parent="1">
          <mxGeometry x="440" y="410" width="100" height="40" as="geometry" />
        </mxCell>
        <mxCell id="tYp8DxYeUjotnzbZJ6wx-44" value="id" style="ellipse;whiteSpace=wrap;html=1;align=center;fontStyle=4;" vertex="1" parent="1">
          <mxGeometry x="140" y="400" width="100" height="40" as="geometry" />
        </mxCell>
        <mxCell id="tYp8DxYeUjotnzbZJ6wx-45" value="id" style="ellipse;whiteSpace=wrap;html=1;align=center;fontStyle=4;" vertex="1" parent="1">
          <mxGeometry x="20" y="400" width="100" height="40" as="geometry" />
        </mxCell>
        <mxCell id="tYp8DxYeUjotnzbZJ6wx-46" value="booked_at" style="ellipse;whiteSpace=wrap;html=1;align=center;" vertex="1" parent="1">
          <mxGeometry x="270" y="10" width="100" height="40" as="geometry" />
        </mxCell>
        <mxCell id="tYp8DxYeUjotnzbZJ6wx-47" value="event_id" style="ellipse;whiteSpace=wrap;html=1;align=center;" vertex="1" parent="1">
          <mxGeometry x="300" y="60" width="100" height="40" as="geometry" />
        </mxCell>
        <mxCell id="tYp8DxYeUjotnzbZJ6wx-48" value="" style="endArrow=none;html=1;rounded=0;" edge="1" parent="1" source="tYp8DxYeUjotnzbZJ6wx-40" target="tYp8DxYeUjotnzbZJ6wx-1">
          <mxGeometry relative="1" as="geometry">
            <mxPoint x="60" y="50" as="sourcePoint" />
            <mxPoint x="220" y="50" as="targetPoint" />
          </mxGeometry>
        </mxCell>
        <mxCell id="tYp8DxYeUjotnzbZJ6wx-49" value="" style="endArrow=none;html=1;rounded=0;" edge="1" parent="1" source="tYp8DxYeUjotnzbZJ6wx-47" target="tYp8DxYeUjotnzbZJ6wx-1">
          <mxGeometry relative="1" as="geometry">
            <mxPoint x="60" y="60" as="sourcePoint" />
            <mxPoint x="220" y="60" as="targetPoint" />
          </mxGeometry>
        </mxCell>
        <mxCell id="tYp8DxYeUjotnzbZJ6wx-50" value="" style="endArrow=none;html=1;rounded=0;" edge="1" parent="1" source="tYp8DxYeUjotnzbZJ6wx-46" target="tYp8DxYeUjotnzbZJ6wx-1">
          <mxGeometry relative="1" as="geometry">
            <mxPoint x="50" y="90" as="sourcePoint" />
            <mxPoint x="210" y="90" as="targetPoint" />
          </mxGeometry>
        </mxCell>
        <mxCell id="tYp8DxYeUjotnzbZJ6wx-51" value="total_price" style="ellipse;whiteSpace=wrap;html=1;align=center;" vertex="1" parent="1">
          <mxGeometry x="100" y="50" width="100" height="40" as="geometry" />
        </mxCell>
        <mxCell id="tYp8DxYeUjotnzbZJ6wx-52" value="" style="endArrow=none;html=1;rounded=0;" edge="1" parent="1" source="tYp8DxYeUjotnzbZJ6wx-51" target="tYp8DxYeUjotnzbZJ6wx-1">
          <mxGeometry relative="1" as="geometry">
            <mxPoint x="40" y="70" as="sourcePoint" />
            <mxPoint x="200" y="70" as="targetPoint" />
          </mxGeometry>
        </mxCell>
        <mxCell id="tYp8DxYeUjotnzbZJ6wx-53" value="quantity" style="ellipse;whiteSpace=wrap;html=1;align=center;" vertex="1" parent="1">
          <mxGeometry x="210" y="440" width="100" height="40" as="geometry" />
        </mxCell>
        <mxCell id="tYp8DxYeUjotnzbZJ6wx-54" value="" style="endArrow=none;html=1;rounded=0;" edge="1" parent="1" source="tYp8DxYeUjotnzbZJ6wx-3" target="tYp8DxYeUjotnzbZJ6wx-53">
          <mxGeometry relative="1" as="geometry">
            <mxPoint x="290" y="450" as="sourcePoint" />
            <mxPoint x="450" y="450" as="targetPoint" />
          </mxGeometry>
        </mxCell>
        <mxCell id="tYp8DxYeUjotnzbZJ6wx-55" value="" style="endArrow=none;html=1;rounded=0;" edge="1" parent="1" source="tYp8DxYeUjotnzbZJ6wx-3" target="tYp8DxYeUjotnzbZJ6wx-44">
          <mxGeometry relative="1" as="geometry">
            <mxPoint x="258" y="370" as="sourcePoint" />
            <mxPoint x="294" y="411" as="targetPoint" />
          </mxGeometry>
        </mxCell>
        <mxCell id="tYp8DxYeUjotnzbZJ6wx-57" value="" style="endArrow=none;html=1;rounded=0;" edge="1" parent="1" source="tYp8DxYeUjotnzbZJ6wx-3" target="tYp8DxYeUjotnzbZJ6wx-56">
          <mxGeometry relative="1" as="geometry">
            <mxPoint x="280" y="340" as="sourcePoint" />
            <mxPoint x="520" y="340" as="targetPoint" />
          </mxGeometry>
        </mxCell>
        <mxCell id="tYp8DxYeUjotnzbZJ6wx-58" value="1" style="resizable=0;html=1;whiteSpace=wrap;align=left;verticalAlign=bottom;" connectable="0" vertex="1" parent="tYp8DxYeUjotnzbZJ6wx-57">
          <mxGeometry x="-1" relative="1" as="geometry" />
        </mxCell>
        <mxCell id="tYp8DxYeUjotnzbZJ6wx-56" value="generated_from" style="shape=rhombus;perimeter=rhombusPerimeter;whiteSpace=wrap;html=1;align=center;" vertex="1" parent="1">
          <mxGeometry x="310" y="310" width="180" height="60" as="geometry" />
        </mxCell>
        <mxCell id="tYp8DxYeUjotnzbZJ6wx-60" value="" style="endArrow=none;html=1;rounded=0;" edge="1" parent="1" source="tYp8DxYeUjotnzbZJ6wx-5" target="tYp8DxYeUjotnzbZJ6wx-45">
          <mxGeometry relative="1" as="geometry">
            <mxPoint x="-40" y="380" as="sourcePoint" />
            <mxPoint x="120" y="380" as="targetPoint" />
          </mxGeometry>
        </mxCell>
        <mxCell id="tYp8DxYeUjotnzbZJ6wx-61" value="stripe_id" style="ellipse;whiteSpace=wrap;html=1;align=center;" vertex="1" parent="1">
          <mxGeometry x="450" y="60" width="100" height="40" as="geometry" />
        </mxCell>
        <mxCell id="tYp8DxYeUjotnzbZJ6wx-62" value="email" style="ellipse;whiteSpace=wrap;html=1;align=center;" vertex="1" parent="1">
          <mxGeometry x="530" y="30" width="100" height="40" as="geometry" />
        </mxCell>
        <mxCell id="tYp8DxYeUjotnzbZJ6wx-63" value="" style="endArrow=none;html=1;rounded=0;" edge="1" parent="1" source="tYp8DxYeUjotnzbZJ6wx-61" target="tYp8DxYeUjotnzbZJ6wx-2">
          <mxGeometry relative="1" as="geometry">
            <mxPoint x="480" y="170" as="sourcePoint" />
            <mxPoint x="640" y="170" as="targetPoint" />
          </mxGeometry>
        </mxCell>
        <mxCell id="tYp8DxYeUjotnzbZJ6wx-64" value="" style="endArrow=none;html=1;rounded=0;" edge="1" parent="1" source="tYp8DxYeUjotnzbZJ6wx-62" target="tYp8DxYeUjotnzbZJ6wx-2">
          <mxGeometry relative="1" as="geometry">
            <mxPoint x="370" y="210" as="sourcePoint" />
            <mxPoint x="530" y="210" as="targetPoint" />
          </mxGeometry>
        </mxCell>
        <mxCell id="tYp8DxYeUjotnzbZJ6wx-65" value="" style="endArrow=none;html=1;rounded=0;" edge="1" parent="1" source="tYp8DxYeUjotnzbZJ6wx-41" target="tYp8DxYeUjotnzbZJ6wx-2">
          <mxGeometry relative="1" as="geometry">
            <mxPoint x="420" y="200" as="sourcePoint" />
            <mxPoint x="580" y="200" as="targetPoint" />
          </mxGeometry>
        </mxCell>
        <mxCell id="tYp8DxYeUjotnzbZJ6wx-66" value="status" style="ellipse;whiteSpace=wrap;html=1;align=center;" vertex="1" parent="1">
          <mxGeometry x="810" y="190" width="100" height="40" as="geometry" />
        </mxCell>
        <mxCell id="tYp8DxYeUjotnzbZJ6wx-67" value="requested_at" style="ellipse;whiteSpace=wrap;html=1;align=center;" vertex="1" parent="1">
          <mxGeometry x="810" y="240" width="100" height="40" as="geometry" />
        </mxCell>
        <mxCell id="tYp8DxYeUjotnzbZJ6wx-68" value="" style="endArrow=none;html=1;rounded=0;" edge="1" parent="1" source="tYp8DxYeUjotnzbZJ6wx-6" target="tYp8DxYeUjotnzbZJ6wx-42">
          <mxGeometry relative="1" as="geometry">
            <mxPoint x="770" y="280" as="sourcePoint" />
            <mxPoint x="930" y="280" as="targetPoint" />
          </mxGeometry>
        </mxCell>
        <mxCell id="tYp8DxYeUjotnzbZJ6wx-69" value="" style="endArrow=none;html=1;rounded=0;" edge="1" parent="1" source="tYp8DxYeUjotnzbZJ6wx-6" target="tYp8DxYeUjotnzbZJ6wx-66">
          <mxGeometry relative="1" as="geometry">
            <mxPoint x="710" y="330" as="sourcePoint" />
            <mxPoint x="870" y="330" as="targetPoint" />
          </mxGeometry>
        </mxCell>
        <mxCell id="tYp8DxYeUjotnzbZJ6wx-70" value="" style="endArrow=none;html=1;rounded=0;" edge="1" parent="1" source="tYp8DxYeUjotnzbZJ6wx-6" target="tYp8DxYeUjotnzbZJ6wx-67">
          <mxGeometry relative="1" as="geometry">
            <mxPoint x="710" y="360" as="sourcePoint" />
            <mxPoint x="870" y="360" as="targetPoint" />
          </mxGeometry>
        </mxCell>
        <mxCell id="tYp8DxYeUjotnzbZJ6wx-71" value="public_id" style="ellipse;whiteSpace=wrap;html=1;align=center;" vertex="1" parent="1">
          <mxGeometry x="530" y="440" width="100" height="40" as="geometry" />
        </mxCell>
        <mxCell id="tYp8DxYeUjotnzbZJ6wx-72" value="status" style="ellipse;whiteSpace=wrap;html=1;align=center;" vertex="1" parent="1">
          <mxGeometry x="620" y="410" width="100" height="40" as="geometry" />
        </mxCell>
        <mxCell id="tYp8DxYeUjotnzbZJ6wx-73" value="price" style="ellipse;whiteSpace=wrap;html=1;align=center;" vertex="1" parent="1">
          <mxGeometry x="680" y="370" width="100" height="40" as="geometry" />
        </mxCell>
        <mxCell id="tYp8DxYeUjotnzbZJ6wx-74" value="tax_rate" style="ellipse;whiteSpace=wrap;html=1;align=center;" vertex="1" parent="1">
          <mxGeometry x="670" y="320" width="100" height="40" as="geometry" />
        </mxCell>
        <mxCell id="tYp8DxYeUjotnzbZJ6wx-75" value="" style="endArrow=none;html=1;rounded=0;" edge="1" parent="1" source="tYp8DxYeUjotnzbZJ6wx-43" target="tYp8DxYeUjotnzbZJ6wx-4">
          <mxGeometry relative="1" as="geometry">
            <mxPoint x="370" y="510" as="sourcePoint" />
            <mxPoint x="530" y="510" as="targetPoint" />
          </mxGeometry>
        </mxCell>
        <mxCell id="tYp8DxYeUjotnzbZJ6wx-76" value="" style="endArrow=none;html=1;rounded=0;" edge="1" parent="1" source="tYp8DxYeUjotnzbZJ6wx-71" target="tYp8DxYeUjotnzbZJ6wx-4">
          <mxGeometry relative="1" as="geometry">
            <mxPoint x="390" y="520" as="sourcePoint" />
            <mxPoint x="590" y="370" as="targetPoint" />
          </mxGeometry>
        </mxCell>
        <mxCell id="tYp8DxYeUjotnzbZJ6wx-77" value="" style="endArrow=none;html=1;rounded=0;" edge="1" parent="1" source="tYp8DxYeUjotnzbZJ6wx-72" target="tYp8DxYeUjotnzbZJ6wx-4">
          <mxGeometry relative="1" as="geometry">
            <mxPoint x="588" y="450" as="sourcePoint" />
            <mxPoint x="582" y="370" as="targetPoint" />
          </mxGeometry>
        </mxCell>
        <mxCell id="tYp8DxYeUjotnzbZJ6wx-78" value="" style="endArrow=none;html=1;rounded=0;" edge="1" parent="1" source="tYp8DxYeUjotnzbZJ6wx-73" target="tYp8DxYeUjotnzbZJ6wx-4">
          <mxGeometry relative="1" as="geometry">
            <mxPoint x="660" y="422" as="sourcePoint" />
            <mxPoint x="602" y="370" as="targetPoint" />
          </mxGeometry>
        </mxCell>
        <mxCell id="tYp8DxYeUjotnzbZJ6wx-79" value="" style="endArrow=none;html=1;rounded=0;" edge="1" parent="1" source="tYp8DxYeUjotnzbZJ6wx-74" target="tYp8DxYeUjotnzbZJ6wx-4">
          <mxGeometry relative="1" as="geometry">
            <mxPoint x="700" y="388" as="sourcePoint" />
            <mxPoint x="630" y="366" as="targetPoint" />
          </mxGeometry>
        </mxCell>
        <mxCell id="tYp8DxYeUjotnzbZJ6wx-80" value="quantity" style="ellipse;whiteSpace=wrap;html=1;align=center;" vertex="1" parent="1">
          <mxGeometry x="270" y="390" width="100" height="40" as="geometry" />
        </mxCell>
        <mxCell id="tYp8DxYeUjotnzbZJ6wx-81" value="" style="endArrow=none;html=1;rounded=0;" edge="1" parent="1" source="tYp8DxYeUjotnzbZJ6wx-3" target="tYp8DxYeUjotnzbZJ6wx-80">
          <mxGeometry relative="1" as="geometry">
            <mxPoint x="245" y="370" as="sourcePoint" />
            <mxPoint x="265" y="450" as="targetPoint" />
          </mxGeometry>
        </mxCell>
      </root>
    </mxGraphModel>
  </diagram>
</mxfile>
